<svg version="1.0" xmlns="http://www.w3.org/2000/svg"
 width="280.000000pt" height="260.000000pt" viewBox="0 0 280.000000 260.000000"
 preserveAspectRatio="xMidYMid meet">
<g transform="translate(0.000000,260.000000) scale(0.100000,-0.100000)"
fill="#FFF" stroke="none">
<path d="M1198 2585 c-319 -44 -589 -176 -814 -400 -193 -191 -303 -391 -360
-652 -23 -107 -23 -359 0 -466 109 -497 480 -876 996 -1017 294 -80 623 -61
925 55 308 118 578 361 722 650 89 178 127 339 127 545 0 331 -118 619 -353
863 -316 328 -779 485 -1243 422z m382 -140 c540 -73 954 -443 1061 -950 19
-86 16 -323 -5 -413 -84 -376 -358 -693 -727 -841 -633 -254 -1366 1 -1649
574 -86 175 -114 293 -114 485 0 192 35 336 121 501 239 456 771 718 1313 644z"/>
<path d="M1120 1774 c-100 -131 -100 -131 -43 -90 184 132 452 132 636 0 57
-41 57 -41 -43 90 l-65 85 -210 0 -210 0 -65 -85z"/>
<path d="M1260 1701 c-82 -26 -118 -48 -183 -109 -101 -97 -147 -205 -147
-348 0 -142 45 -248 144 -342 110 -104 264 -149 409 -119 181 37 310 148 367
318 18 53 21 81 18 164 -3 90 -7 107 -39 175 -45 93 -95 152 -173 202 -117 75
-273 99 -396 59z m382 -229 c61 -63 79 -88 92 -132 21 -71 20 -124 -4 -203
-22 -72 -88 -155 -144 -183 -23 -12 -11 4 47 63 l77 78 0 63 0 62 -65 0 -65 0
0 -35 c0 -32 2 -35 30 -35 17 0 30 -4 30 -8 0 -4 -25 -32 -55 -62 l-55 -54 0
194 0 194 55 -54 c30 -30 55 -62 55 -72 0 -14 8 -18 35 -18 34 0 35 1 35 37 0
34 -9 46 -82 120 -80 81 -84 83 -130 83 l-48 0 0 -289 0 -290 43 -3 42 -3 -40
-13 c-57 -17 -154 -15 -216 5 -40 13 -72 35 -126 87 l-73 69 0 146 0 146 94
92 94 93 149 0 150 0 75 -78z"/>
<path d="M1281 1415 c-18 -52 -35 -95 -37 -95 -2 0 -14 21 -27 46 l-24 46 -36
-32 -37 -32 0 -127 0 -127 35 -34 34 -33 3 109 3 109 29 -60 28 -60 34 85 33
85 0 -182 1 -183 40 0 40 0 0 290 0 290 -43 0 -44 0 -32 -95z"/>
<path d="M560 1165 l0 -425 305 0 c168 0 305 2 305 5 0 2 -17 13 -39 24 -57
30 -149 118 -193 186 -110 169 -111 390 -3 570 19 32 35 59 35 61 0 2 -92 4
-205 4 l-205 0 0 -425z"/>
<path d="M1836 1563 c71 -108 97 -194 98 -318 0 -193 -92 -367 -245 -461 -32
-20 -59 -38 -59 -40 0 -2 137 -4 305 -4 l305 0 0 425 0 425 -211 0 -211 0 18
-27z"/>
</g>
</svg>
